HIERARCHY
ROOT Hips
{
	OFFSET 0.000000 100.481300 0.000000
	CHANNELS 6 Xposition Yposition Zposition Xrotation Yrotation Zrotation
	JOINT Spine
	{
		OFFSET -0.279200 12.230698 -2.892100
		CHANNELS 3 Xrotation Yrotation Zrotation
		JOINT Spine1
		{
			OFFSET -0.325700 14.269203 -3.374200
			CHANNELS 3 Xrotation Yrotation Zrotation
			JOINT Spine2
			{
				OFFSET -0.372300 16.307602 -0.352600
				CHANNELS 3 Xrotation Yrotation Zrotation
				JOINT Neck
				{
					OFFSET -0.418800 17.814194 8.416900
					CHANNELS 3 Xrotation Yrotation Zrotation
					JOINT Head
					{
						OFFSET 0.000000 7.031097 3.806800
						CHANNELS 3 Xrotation Yrotation Zrotation
						JOINT HeadTop_End
						{
							OFFSET 0.000000 24.646606 12.978600
							CHANNELS 3 Xrotation Yrotation Zrotation
							End Site
							{
								OFFSET 0.000000 27.854965 0.000000
							}
						}
					}
				}
				JOINT LeftShoulder
				{
					OFFSET 16.952999 14.495407 -7.737500
					CHANNELS 3 Xrotation Yrotation Zrotation
					JOINT LeftArm
					{
						OFFSET 9.308998 -2.777710 0.208600
						CHANNELS 3 Xrotation Yrotation Zrotation
						JOINT LeftForeArm
						{
							OFFSET 29.972298 0.000000 0.000000
							CHANNELS 3 Xrotation Yrotation Zrotation
							JOINT LeftHand
							{
								OFFSET 26.026505 0.000000 0.000000
								CHANNELS 3 Xrotation Yrotation Zrotation
								JOINT LeftHandThumb1
								{
									OFFSET 12.240501 -7.147949 9.207150
									CHANNELS 3 Xrotation Yrotation Zrotation
									JOINT LeftHandThumb2
									{
										OFFSET 4.138618 -2.389435 2.389433
										CHANNELS 3 Xrotation Yrotation Zrotation
										JOINT LeftHandThumb3
										{
											OFFSET 2.726913 -1.574387 1.574386
											CHANNELS 3 Xrotation Yrotation Zrotation
											JOINT LeftHandThumb4
											{
												OFFSET 3.941010 -2.275345 2.275342
												CHANNELS 3 Xrotation Yrotation Zrotation
												End Site
												{
													OFFSET -0.005798 5.087799 0.009903
												}
											}
										}
									}
								}
								JOINT LeftHandIndex1
								{
									OFFSET 24.424698 -1.985611 5.953459
									CHANNELS 3 Xrotation Yrotation Zrotation
									JOINT LeftHandIndex2
									{
										OFFSET 6.426697 0.000000 0.000000
										CHANNELS 3 Xrotation Yrotation Zrotation
										JOINT LeftHandIndex3
										{
											OFFSET 5.337898 0.000000 0.000000
											CHANNELS 3 Xrotation Yrotation Zrotation
											JOINT LeftHandIndex4
											{
												OFFSET 4.409401 0.000000 0.000000
												CHANNELS 3 Xrotation Yrotation Zrotation
												End Site
												{
													OFFSET 0.000000 4.409363 0.014373
												}
											}
										}
									}
								}
								JOINT LeftHandMiddle1
								{
									OFFSET 23.810104 0.000000 0.000000
									CHANNELS 3 Xrotation Yrotation Zrotation
									JOINT LeftHandMiddle2
									{
										OFFSET 7.176498 0.000000 0.000000
										CHANNELS 3 Xrotation Yrotation Zrotation
										JOINT LeftHandMiddle3
										{
											OFFSET 6.774902 0.000000 0.000000
											CHANNELS 3 Xrotation Yrotation Zrotation
											JOINT LeftHandMiddle4
											{
												OFFSET 5.403328 0.000000 0.000000
												CHANNELS 3 Xrotation Yrotation Zrotation
												End Site
												{
													OFFSET -0.027702 5.403244 0.017414
												}
											}
										}
									}
								}
								JOINT LeftHandRing1
								{
									OFFSET 22.908401 -0.839279 -6.020567
									CHANNELS 3 Xrotation Yrotation Zrotation
									JOINT LeftHandRing2
									{
										OFFSET 6.337502 0.000000 0.000000
										CHANNELS 3 Xrotation Yrotation Zrotation
										JOINT LeftHandRing3
										{
											OFFSET 5.779297 0.000000 0.000000
											CHANNELS 3 Xrotation Yrotation Zrotation
											JOINT LeftHandRing4
											{
												OFFSET 4.965698 0.000000 0.000000
												CHANNELS 3 Xrotation Yrotation Zrotation
												End Site
												{
													OFFSET 0.000000 4.965668 0.016186
												}
											}
										}
									}
								}
								JOINT LeftHandPinky1
								{
									OFFSET 20.037003 -1.530319 -10.950146
									CHANNELS 3 Xrotation Yrotation Zrotation
									JOINT LeftHandPinky2
									{
										OFFSET 5.254700 0.000000 0.000000
										CHANNELS 3 Xrotation Yrotation Zrotation
										JOINT LeftHandPinky3
										{
											OFFSET 4.810204 0.000000 0.000000
											CHANNELS 3 Xrotation Yrotation Zrotation
											JOINT LeftHandPinky4
											{
												OFFSET 3.647202 0.000000 0.000000
												CHANNELS 3 Xrotation Yrotation Zrotation
												End Site
												{
													OFFSET 0.000000 3.647186 0.011889
												}
											}
										}
									}
								}
							}
						}
					}
				}
				JOINT RightShoulder
				{
					OFFSET -15.141001 14.495407 -7.737500
					CHANNELS 3 Xrotation Yrotation Zrotation
					JOINT RightArm
					{
						OFFSET -9.308998 -2.777710 0.208500
						CHANNELS 3 Xrotation Yrotation Zrotation
						JOINT RightForeArm
						{
							OFFSET -29.972300 0.000000 0.000000
							CHANNELS 3 Xrotation Yrotation Zrotation
							JOINT RightHand
							{
								OFFSET -26.026505 0.000000 0.000000
								CHANNELS 3 Xrotation Yrotation Zrotation
								JOINT RightHandThumb1
								{
									OFFSET -12.240601 -7.148026 9.207092
									CHANNELS 3 Xrotation Yrotation Zrotation
									JOINT RightHandThumb2
									{
										OFFSET -4.138618 -2.389435 2.389433
										CHANNELS 3 Xrotation Yrotation Zrotation
										JOINT RightHandThumb3
										{
											OFFSET -2.726974 -1.574417 1.574421
											CHANNELS 3 Xrotation Yrotation Zrotation
											JOINT RightHandThumb4
											{
												OFFSET -3.941010 -2.275345 2.275343
												CHANNELS 3 Xrotation Yrotation Zrotation
												End Site
												{
													OFFSET 0.005814 5.087799 0.009927
												}
											}
										}
									}
								}
								JOINT RightHandIndex1
								{
									OFFSET -24.424698 -1.985657 5.953444
									CHANNELS 3 Xrotation Yrotation Zrotation
									JOINT RightHandIndex2
									{
										OFFSET -6.426697 0.000000 0.000000
										CHANNELS 3 Xrotation Yrotation Zrotation
										JOINT RightHandIndex3
										{
											OFFSET -5.337898 0.000000 0.000000
											CHANNELS 3 Xrotation Yrotation Zrotation
											JOINT RightHandIndex4
											{
												OFFSET -4.409401 0.000000 0.000000
												CHANNELS 3 Xrotation Yrotation Zrotation
												End Site
												{
													OFFSET 0.000000 4.409363 0.014408
												}
											}
										}
									}
								}
								JOINT RightHandMiddle1
								{
									OFFSET -23.810097 0.000000 0.000000
									CHANNELS 3 Xrotation Yrotation Zrotation
									JOINT RightHandMiddle2
									{
										OFFSET -7.176498 0.000000 0.000000
										CHANNELS 3 Xrotation Yrotation Zrotation
										JOINT RightHandMiddle3
										{
											OFFSET -6.774902 0.000000 0.000000
											CHANNELS 3 Xrotation Yrotation Zrotation
											JOINT RightHandMiddle4
											{
												OFFSET -5.403328 0.000000 0.000000
												CHANNELS 3 Xrotation Yrotation Zrotation
												End Site
												{
													OFFSET 0.027702 5.403244 0.017457
												}
											}
										}
									}
								}
								JOINT RightHandRing1
								{
									OFFSET -22.908302 -0.839325 -6.020576
									CHANNELS 3 Xrotation Yrotation Zrotation
									JOINT RightHandRing2
									{
										OFFSET -6.337502 0.000000 0.000000
										CHANNELS 3 Xrotation Yrotation Zrotation
										JOINT RightHandRing3
										{
											OFFSET -5.779297 0.000000 0.000000
											CHANNELS 3 Xrotation Yrotation Zrotation
											JOINT RightHandRing4
											{
												OFFSET -4.965698 0.000000 0.000000
												CHANNELS 3 Xrotation Yrotation Zrotation
												End Site
												{
													OFFSET 0.000000 4.965668 0.016226
												}
											}
										}
									}
								}
								JOINT RightHandPinky1
								{
									OFFSET -20.037003 -1.530334 -10.950259
									CHANNELS 3 Xrotation Yrotation Zrotation
									JOINT RightHandPinky2
									{
										OFFSET -5.254700 0.000000 0.000000
										CHANNELS 3 Xrotation Yrotation Zrotation
										JOINT RightHandPinky3
										{
											OFFSET -4.810204 0.000000 0.000000
											CHANNELS 3 Xrotation Yrotation Zrotation
											JOINT RightHandPinky4
											{
												OFFSET -3.647202 0.000000 0.000000
												CHANNELS 3 Xrotation Yrotation Zrotation
												End Site
												{
													OFFSET 0.000000 3.647186 0.011917
												}
											}
										}
									}
								}
							}
						}
					}
				}
			}
		}
	}
	JOINT LeftUpLeg
	{
		OFFSET 15.427100 -6.655098 0.678600
		CHANNELS 3 Xrotation Yrotation Zrotation
		JOINT LeftLeg
		{
			OFFSET 4.081073 -39.591068 13.024000
			CHANNELS 3 Xrotation Yrotation Zrotation
			JOINT LeftFoot
			{
				OFFSET -4.081074 -37.707932 -15.979700
				CHANNELS 3 Xrotation Yrotation Zrotation
				JOINT LeftToeBase
				{
					OFFSET 5.346399 -15.068900 20.645000
					CHANNELS 3 Xrotation Yrotation Zrotation
					JOINT LeftToe_End
					{
						OFFSET 2.754700 0.931300 11.300900
						CHANNELS 3 Xrotation Yrotation Zrotation
						End Site
						{
							OFFSET 0.000000 11.669021 0.000000
						}
					}
				}
			}
		}
	}
	JOINT RightUpLeg
	{
		OFFSET -15.569500 -6.655098 0.678600
		CHANNELS 3 Xrotation Yrotation Zrotation
		JOINT RightLeg
		{
			OFFSET -4.081825 -39.591045 13.023800
			CHANNELS 3 Xrotation Yrotation Zrotation
			JOINT RightFoot
			{
				OFFSET 4.081824 -37.707954 -15.979600
				CHANNELS 3 Xrotation Yrotation Zrotation
				JOINT RightToeBase
				{
					OFFSET -5.346400 -15.068900 20.645000
					CHANNELS 3 Xrotation Yrotation Zrotation
					JOINT RightToe_End
					{
						OFFSET -2.754700 0.931300 11.300900
						CHANNELS 3 Xrotation Yrotation Zrotation
						End Site
						{
							OFFSET 0.000000 11.669021 0.000000
						}
					}
				}
			}
		}
	}
}
MOTION
Frames: 6
Frame Time: 0.033333
0.812231 96.424202 -0.024850 5.895284 10.935403 -3.604027 1.641969 2.293464 -0.455759 1.523786 2.767621 -0.355449 1.519883 3.122042 1.732177 13.863072 0.124318 4.142471 -15.376177 -18.435068 -1.710595 0.000000 0.000000 0.000000 -4.152171 -9.166805 -5.769489 19.186092 -32.027334 -68.523968 0.000003 -18.799957 0.000006 -12.402694 4.202772 -9.121267 -11.126033 10.125974 12.783998 11.350587 17.849432 1.274984 -19.669970 -22.796303 0.494594 0.000000 0.000000 0.000001 -0.961371 0.574502 -20.158091 0.007320 0.293129 -2.861690 0.038944 -0.675114 6.602879 0.000000 -0.000001 -0.000002 -0.667329 1.448522 -20.518402 0.259072 1.724522 -17.085701 0.038813 0.673994 -6.591805 -0.000001 -0.000003 0.000002 -1.721513 -3.132611 -16.189232 0.262567 1.735858 -17.201476 0.006945 0.285482 -2.786911 0.000001 -0.000000 0.000000 -1.957509 -2.434082 -19.609135 0.035502 0.644695 -6.304157 0.079100 -0.960480 9.415910 -0.000001 -0.000001 -0.000001 -3.982396 -3.714944 -1.897656 -55.939143 23.198584 32.144175 0.000053 114.944366 -0.000064 -47.633254 -5.720349 9.549345 -45.164653 17.186552 13.259244 3.569084 -2.411072 10.789454 -19.638689 18.202828 -10.028932 -0.000000 -0.000001 -0.000001 -0.353210 -2.515536 25.782475 -0.000001 -0.000006 0.000064 0.022440 -0.457158 5.621005 -0.000000 -0.000001 -0.000001 -0.094185 -2.541917 17.428018 0.024973 -0.482202 5.930062 0.003923 -0.191437 2.350682 -0.000000 0.000000 0.000000 -2.383179 7.504140 13.761311 0.080103 -0.860964 10.630571 0.077787 0.848562 -10.475739 0.000002 -0.000000 0.000000 -4.632072 22.636691 11.900531 0.006222 -0.240928 2.958948 0.000427 0.062547 -0.767848 0.000001 -0.000004 -0.000001 -17.247751 5.297362 2.628900 15.875561 -3.760158 -0.357396 -4.725725 3.004685 1.614895 0.026658 0.000080 -0.019259 -0.000000 0.000000 -0.000000 -11.500544 -2.099804 1.615810 12.188867 -4.738895 0.288392 -6.034355 -4.210496 0.908833 -0.223348 0.000000 0.000004 -0.000000 -0.000000 -0.000000 
0.843549 96.386063 -0.092829 5.952748 10.990866 -3.763120 1.646305 2.298913 -0.446056 1.529076 2.769891 -0.368610 1.525317 3.121827 1.718869 13.896163 0.129365 4.133941 -15.243116 -18.445874 -1.568297 0.000000 0.000000 -0.000000 -4.148299 -9.154141 -5.736176 19.296560 -31.937971 -68.404235 0.000000 -19.202699 -0.000009 -12.384262 4.401087 -8.969461 -11.130388 10.131208 12.784625 11.359992 17.865458 1.272688 -19.667530 -22.798716 0.494849 0.000000 -0.000000 0.000000 -0.961443 0.577724 -20.174475 0.007317 0.293026 -2.860594 0.038959 -0.675240 6.604131 -0.000000 0.000000 -0.000000 -0.668164 1.448952 -20.535382 0.258664 1.723210 -17.072179 0.038657 0.672604 -6.578254 -0.000001 0.000000 0.000001 -1.720151 -3.128573 -16.187311 0.262500 1.735641 -17.199277 0.006946 0.285496 -2.787101 0.000000 0.000001 0.000002 -1.961001 -2.445177 -19.606995 0.035511 0.644775 -6.304940 0.079056 -0.960207 9.413175 0.000001 -0.000001 0.000002 -3.976139 -3.672501 -1.849596 -55.987662 23.125497 32.332849 0.000026 114.937303 -0.000026 -47.172237 -5.818324 9.811651 -45.181957 17.201229 13.261321 3.569271 -2.411612 10.789636 -19.637151 18.203347 -10.029266 -0.000001 -0.000004 -0.000000 -0.332130 -2.556899 25.750658 -0.000003 -0.000004 0.000068 0.023193 -0.464675 5.713767 0.000001 0.000000 -0.000000 -0.085104 -2.577000 17.517234 0.024814 -0.480675 5.911212 0.003856 -0.189854 2.331220 -0.000000 0.000000 0.000000 -2.414135 7.542260 13.874086 0.081238 -0.866984 10.705773 0.081747 0.869699 -10.739684 0.000001 -0.000001 -0.000000 -4.822592 22.577614 12.348927 0.006357 -0.243588 2.991567 0.000383 0.059604 -0.731649 -0.000001 -0.000002 -0.000001 -17.486461 5.241934 2.759472 16.085355 -3.747493 -0.369270 -4.763683 2.939939 1.648066 0.026542 0.000078 -0.019198 -0.000000 -0.000000 0.000000 -11.591797 -2.050571 1.741323 12.180310 -4.728241 0.298724 -5.993415 -4.332707 0.913755 -0.214341 0.000000 -0.000002 0.000000 0.000000 -0.000000 
0.876407 96.348038 -0.149032 5.979027 11.021460 -3.914245 1.647441 2.303755 -0.441679 1.530516 2.771942 -0.385997 1.526917 3.121535 1.701493 13.923342 0.138148 4.139052 -15.170890 -18.383232 -1.444603 -0.000000 -0.000000 -0.000000 -4.136992 -9.115427 -5.622883 19.342597 -31.954016 -68.409843 0.000005 -19.465508 0.000005 -12.444223 4.512802 -8.783906 -11.142010 10.098776 12.779570 11.373932 17.889985 1.268437 -19.664227 -22.800230 0.496406 0.000000 -0.000001 0.000000 -0.961163 0.579416 -20.178911 0.007299 0.292680 -2.857321 0.039002 -0.675585 6.607590 0.000000 0.000000 -0.000001 -0.668754 1.449343 -20.547830 0.258661 1.723195 -17.071974 0.038658 0.672628 -6.578476 -0.000002 0.000001 0.000001 -1.724942 -3.136617 -16.206731 0.262438 1.735443 -17.197173 0.006928 0.285167 -2.783837 0.000001 -0.000000 0.000002 -1.966679 -2.462091 -19.606388 0.035524 0.644861 -6.305773 0.079016 -0.959966 9.410798 -0.000000 -0.000001 0.000002 -3.955280 -3.587023 -1.699859 -56.026532 23.102405 32.444911 0.000020 114.935760 -0.000025 -46.819864 -5.936478 10.020484 -45.199791 17.216241 13.263554 3.569493 -2.412211 10.789853 -19.635551 18.203890 -10.029661 0.000001 0.000000 0.000002 -0.299621 -2.622089 25.717995 -0.000007 -0.000005 0.000113 0.024484 -0.477460 5.871513 0.000000 -0.000000 -0.000000 -0.071859 -2.622758 17.574031 0.024895 -0.481516 5.921573 0.003902 -0.190633 2.340790 -0.000003 0.000000 0.000000 -2.442987 7.587165 13.967739 0.081961 -0.870850 10.754048 0.085995 0.891783 -11.015810 0.000002 -0.000001 0.000003 -4.977885 22.551143 12.706514 0.006928 -0.254248 3.122600 0.000325 0.055009 -0.675297 -0.000000 -0.000003 0.000003 -17.678763 5.203865 2.894545 16.295452 -3.736901 -0.381004 -4.819473 2.886108 1.680160 0.026305 0.000058 -0.018996 0.000000 -0.000002 -0.000000 -11.646444 -1.975553 1.869773 12.169798 -4.718147 0.310757 -5.957951 -4.454091 0.918174 -0.205911 0.000002 -0.000013 -0.000000 0.000000 0.000000 
0.910493 96.314766 -0.196320 5.979565 11.030059 -4.046546 1.646902 2.307648 -0.442281 1.530868 2.773564 -0.406150 1.527408 3.121131 1.681211 13.942842 0.143940 4.151422 -15.176337 -18.274234 -1.366732 0.000000 -0.000000 0.000000 -4.123100 -9.068536 -5.481368 19.337463 -32.025224 -68.482837 -0.000002 -19.588819 -0.000002 -12.515420 4.579244 -8.612938 -11.145134 10.081398 12.776646 11.363302 17.870381 1.264203 -19.660754 -22.800835 0.499411 -0.000000 -0.000000 -0.000000 -0.960956 0.581653 -20.186918 0.007279 0.292261 -2.853183 0.039049 -0.676024 6.611808 0.000000 -0.000000 0.000001 -0.668431 1.444711 -20.513251 0.258960 1.724169 -17.081977 0.038769 0.673624 -6.588186 0.000001 0.000001 0.000000 -1.727207 -3.145665 -16.205075 0.262368 1.735221 -17.194907 0.006909 0.284701 -2.779373 -0.000000 -0.000000 -0.000001 -1.967183 -2.464123 -19.604962 0.035529 0.644953 -6.306608 0.078983 -0.959756 9.408776 -0.000000 -0.000000 0.000001 -3.929961 -3.487717 -1.520898 -56.046128 23.090868 32.528339 0.000093 114.962452 -0.000094 -46.586234 -6.027783 10.048859 -45.218106 17.231515 13.265937 3.569745 -2.412864 10.790144 -19.633816 18.204495 -10.030100 -0.000001 -0.000001 -0.000001 -0.271322 -2.682848 25.741989 -0.000003 -0.000004 0.000070 0.025392 -0.486128 5.978517 -0.000000 -0.000000 0.000000 -0.068053 -2.637211 17.611248 0.025062 -0.482963 5.939449 0.003956 -0.192070 2.358428 -0.000001 -0.000000 0.000000 -2.469733 7.650095 14.029530 0.082012 -0.871039 10.756444 0.089968 0.911962 -11.268314 -0.000000 0.000000 -0.000001 -5.127496 22.600251 13.022311 0.007834 -0.270306 3.320167 0.000262 0.049067 -0.602351 -0.000001 -0.000000 0.000001 -17.820711 5.186358 3.020044 16.483367 -3.726149 -0.391647 -4.878647 2.837947 1.710566 0.025470 0.000055 -0.018425 0.000000 0.000000 0.000000 -11.669810 -1.893524 1.986069 12.156684 -4.708420 0.324084 -5.923939 -4.565436 0.923586 -0.200672 -0.000001 0.000004 -0.000000 0.000000 0.000000 
0.944853 96.291397 -0.237136 5.970515 11.030612 -4.154163 1.645032 2.310443 -0.443556 1.530610 2.774527 -0.423811 1.527166 3.120589 1.663462 13.953448 0.146751 4.156556 -15.221942 -18.201604 -1.313521 0.000000 0.000000 0.000000 -4.115254 -9.042326 -5.406449 19.333496 -32.062790 -68.510329 0.000002 -19.634361 -0.000008 -12.529373 4.665268 -8.503194 -11.143600 10.066149 12.773638 11.350734 17.846915 1.260416 -19.657349 -22.799648 0.503327 0.000000 -0.000001 0.000001 -0.960722 0.583966 -20.194954 0.007260 0.291877 -2.849453 0.039094 -0.676413 6.615609 -0.000000 0.000001 -0.000001 -0.668577 1.444724 -20.515867 0.259044 1.724433 -17.084719 0.038819 0.674019 -6.592166 0.000000 -0.000000 -0.000004 -1.729243 -3.143948 -16.223957 0.262283 1.734941 -17.192086 0.006886 0.284264 -2.775031 0.000001 -0.000000 -0.000001 -1.958423 -2.438893 -19.603638 0.035540 0.645037 -6.307514 0.078952 -0.959583 9.407058 -0.000001 -0.000000 0.000000 -3.918148 -3.429816 -1.432081 -56.064542 22.983670 32.712293 -0.000044 115.056545 0.000049 -46.402560 -6.064058 9.981095 -45.236807 17.247114 13.268357 3.570030 -2.413565 10.790441 -19.632032 18.205077 -10.030546 0.000000 -0.000001 0.000001 -0.254852 -2.725067 25.854365 -0.000005 -0.000006 0.000071 0.026280 -0.494641 6.083582 -0.000001 -0.000000 -0.000000 -0.063490 -2.655384 17.670727 0.025177 -0.484025 5.952570 0.003996 -0.193117 2.371302 -0.000001 0.000000 0.000000 -2.479452 7.665246 14.060545 0.081566 -0.868725 10.727581 0.093055 0.927323 -11.460780 -0.000000 0.000001 -0.000002 -5.286408 22.672422 13.347904 0.008902 -0.288227 3.540450 0.000194 0.042131 -0.517138 0.000001 -0.000003 0.000001 -17.920473 5.171437 3.120214 16.627119 -3.711477 -0.400270 -4.924471 2.800424 1.738128 0.024648 0.000038 -0.017858 -0.000000 0.000000 0.000000 -11.672689 -1.815741 2.078818 12.131549 -4.699663 0.337744 -5.888736 -4.673243 0.930382 -0.196292 0.000000 -0.000005 0.000000 -0.000000 0.000000 
0.977458 96.279633 -0.271818 5.962490 11.039591 -4.236713 1.642124 2.311826 -0.442350 1.529078 2.774611 -0.436320 1.525108 3.119875 1.651302 13.953801 0.147999 4.150357 -15.252984 -18.230957 -1.240953 0.000001 -0.000000 0.000000 -4.120713 -9.057429 -5.462250 19.383489 -31.996926 -68.406209 -0.000004 -19.699159 0.000024 -12.466563 4.803009 -8.443939 -11.140172 10.053612 12.771020 11.353991 17.852637 1.258295 -19.653757 -22.797076 0.507153 0.000000 0.000000 0.000001 -0.959487 0.582481 -20.171215 0.007241 0.291523 -2.845998 0.039139 -0.676771 6.619175 -0.000000 0.000000 -0.000000 -0.668721 1.445675 -20.524261 0.259091 1.724594 -17.086319 0.038855 0.674339 -6.595292 -0.000001 -0.000000 -0.000000 -1.724597 -3.133405 -16.210826 0.261774 1.733312 -17.175361 0.006798 0.282449 -2.757336 0.000002 0.000000 0.000002 -1.958013 -2.433076 -19.615622 0.035553 0.645128 -6.308388 0.078930 -0.959447 9.405649 0.000000 -0.000001 -0.000002 -3.930406 -3.454848 -1.511830 -56.101162 22.701151 33.088633 0.000030 115.238105 -0.000023 -46.178434 -6.054379 10.010828 -45.255734 17.263035 13.270733 3.570338 -2.414294 10.790758 -19.630203 18.205675 -10.031010 -0.000000 -0.000003 -0.000001 -0.230347 -2.782288 25.948666 0.000003 -0.000005 0.000072 0.027446 -0.505397 6.216376 -0.000001 0.000000 0.000000 -0.051010 -2.700840 17.772431 0.025042 -0.482823 5.937726 0.003954 -0.191852 2.355770 -0.000000 -0.000001 -0.000000 -2.484872 7.679252 14.071485 0.081241 -0.866998 10.705925 0.094553 0.934657 -11.552610 0.000001 -0.000000 0.000001 -5.471025 22.721545 13.736817 0.010083 -0.306539 3.765815 0.000124 0.034600 -0.424765 0.000001 -0.000002 -0.000001 -17.987349 5.136708 3.186033 16.718510 -3.696512 -0.406648 -4.947654 2.784386 1.762037 0.023431 0.000051 -0.016958 0.000000 -0.000000 0.000000 -11.665129 -1.721738 2.147875 12.091221 -4.692424 0.351282 -5.851072 -4.805041 0.936926 -0.191797 0.000000 0.000005 -0.000000 0.000000 -0.000000 
